<svg xmlns="http://www.w3.org/2000/svg" viewBox="0 0 512 512" id="shopping-bag">
  <path fill="#f1f6f9" d="M406.976 504.5H105.024a30 30 0 0 1-29.903-32.418l26.264-324.791a15 15 0 0 1 14.951-13.791h279.328a15 15 0 0 1 14.951 13.791l26.264 324.791a30 30 0 0 1-29.903 32.418Z"></path>
  <path fill="#dde8ef" d="m436.879 472.082-26.264-324.791a15 15 0 0 0-14.95-13.791h-28.74l24.954 308.582a30 30 0 0 1-29.903 32.418H75.033a29.996 29.996 0 0 0 29.99 30h301.953a30 30 0 0 0 29.903-32.418Z"></path>
  <circle cx="162.427" cy="220.614" r="19.5" fill="#685e68"></circle>
  <circle cx="349.573" cy="220.614" r="19.5" fill="#685e68"></circle>
  <path fill="#554e56" d="M358.352 203.219a19.482 19.482 0 0 1-26.772 24.915 19.498 19.498 0 1 0 26.772-24.915zm-187.146 0a19.482 19.482 0 0 1-26.773 24.915 19.498 19.498 0 1 0 26.773-24.915z"></path>
  <path fill="#d88a55" d="M245.576 397.182h35.846v48.352h-35.846z"></path>
  <path fill="#c57a44" d="M245.576 402.58v-5.398h35.845v42.196l-35.845-36.798z"></path>
  <path fill="#46cc8d" d="m187.37 387.274 73.421-93.882a3.437 3.437 0 0 1 5.415 0l73.42 93.882a3.439 3.439 0 0 1-1.819 5.438 284.713 284.713 0 0 1-148.636-.005 3.435 3.435 0 0 1-1.8-5.433Z"></path>
  <path fill="#00c27a" d="m339.627 387.274-73.42-93.882a3.437 3.437 0 0 0-5.416 0l-8.086 10.34 53.933 68.962a8.326 8.326 0 0 1-4.589 13.225 284.405 284.405 0 0 1-115.39 3.813 3.415 3.415 0 0 0 2.512 2.975 284.714 284.714 0 0 0 148.649.001 3.435 3.435 0 0 0 1.807-5.434Z"></path>
  <path fill="#46cc8d" d="m198.835 341.243 62.363-79.742a2.92 2.92 0 0 1 4.6 0l62.362 79.742a2.921 2.921 0 0 1-1.545 4.62 241.833 241.833 0 0 1-126.25-.005 2.918 2.918 0 0 1-1.53-4.615Z"></path>
  <path fill="#00c27a" d="m328.16 341.243-62.362-79.742a2.92 2.92 0 0 0-4.6 0l-8.19 10.473 41.871 53.54a8.95 8.95 0 0 1-5.09 14.237 241.544 241.544 0 0 1-91.55 3.11 2.896 2.896 0 0 0 2.125 2.997 241.83 241.83 0 0 0 126.25.004 2.92 2.92 0 0 0 1.547-4.619Z"></path>
  <path fill="#46cc8d" d="m213.505 294.858 48.215-61.651a2.257 2.257 0 0 1 3.556 0l48.215 61.651a2.258 2.258 0 0 1-1.195 3.571 186.97 186.97 0 0 1-97.609-.003 2.256 2.256 0 0 1-1.182-3.568Z"></path>
  <path fill="#00c27a" d="m313.49 294.858-48.214-61.652a2.257 2.257 0 0 0-3.556 0l-8.191 10.474 26.543 33.94a9.565 9.565 0 0 1-5.576 15.269 186.897 186.897 0 0 1-61.163 2.257 2.244 2.244 0 0 0 1.354 3.28 186.966 186.966 0 0 0 97.628-.002 2.253 2.253 0 0 0 1.176-3.566Z"></path>
  <circle cx="263.498" cy="230.738" r="20" fill="#e53950"></circle>
  <path fill="#ca2e43" d="M269.522 211.666a20 20 0 0 1-22.517 30.377 19.998 19.998 0 1 0 22.517-30.377Z"></path>
  <path fill="#e53950" d="M105.024 504.5h301.952a30 30 0 0 0 29.903-32.418l-2.23-27.582H77.351l-2.23 27.582a30 30 0 0 0 29.902 32.418Z"></path>
  <path fill="#ca2e43" d="m436.879 472.082-2.23-27.582h-42.681a29.996 29.996 0 0 1-29.992 30H75.033a29.886 29.886 0 0 0 7.66 20.021 30.217 30.217 0 0 0 .913.972c.067.07.133.14.202.209.256.257.52.507.787.755.096.09.19.18.288.27.25.226.506.447.764.665.12.103.24.206.363.307.245.201.495.397.747.59.142.11.283.22.428.326a29.99 29.99 0 0 0 1.22.859q.361.24.73.47.267.168.537.33.358.214.722.418.291.163.587.32.357.189.718.37c.209.103.42.203.63.302.238.11.475.22.716.325.223.097.448.19.674.282.236.096.471.191.71.282.237.089.476.172.716.256.234.082.469.164.706.24.25.08.504.154.757.227.232.068.464.138.698.2.265.07.533.132.8.195.23.054.457.11.689.16.28.059.565.108.849.16.223.04.444.084.668.12.304.047.61.084.917.123.21.026.418.058.629.08.347.036.699.06 1.05.084.174.012.346.03.52.04q.793.041 1.596.042h301.952a30 30 0 0 0 29.903-32.418Z"></path>
  <path fill="#282828" d="m444.353 471.474-26.264-324.791a22.621 22.621 0 0 0-22.427-20.687h-38.59V101.07a101.073 101.073 0 1 0-202.147 0v24.927h-38.591a22.621 22.621 0 0 0-22.427 20.687l-2.115 26.162a7.5 7.5 0 0 0 14.951 1.209l2.115-26.162a7.541 7.541 0 0 1 7.476-6.896h38.59v53.682a27 27 0 1 0 15 0v-53.682h172.147v53.682a27 27 0 1 0 15 0v-53.682h38.591a7.541 7.541 0 0 1 7.476 6.896l23.378 289.104h-56.158a7.5 7.5 0 0 0 0 15h57.37l1.673 20.687a22.501 22.501 0 0 1-22.426 24.313H105.022a22.501 22.501 0 0 1-22.427-24.313l1.673-20.687h256.09a7.5 7.5 0 0 0 0-15h-51.437V407.93a292.454 292.454 0 0 0 50.842-9.015 10.939 10.939 0 0 0 5.771-17.299l-22.08-28.233c1.71-.423 3.416-.858 5.116-1.318a10.42 10.42 0 0 0 5.498-16.479l-23.482-30.026c1.224-.306 2.45-.599 3.668-.928a9.759 9.759 0 0 0 5.145-15.43l-33.778-43.19a27.5 27.5 0 1 0-44.248 0L207.6 289.195a9.756 9.756 0 0 0 5.13 15.432c1.222.33 2.452.623 3.68.93l-23.483 30.027a10.418 10.418 0 0 0 5.48 16.476c1.707.461 3.42.898 5.135 1.322l-22.08 28.232a10.936 10.936 0 0 0 5.752 17.294 292.409 292.409 0 0 0 50.861 9.016v29.071H85.48l18.665-230.82a7.5 7.5 0 0 0-14.95-1.208L67.643 471.474a37.5 37.5 0 0 0 37.378 40.522h301.953a37.5 37.5 0 0 0 37.378-40.522ZM174.425 220.61a12 12 0 1 1-12-12 12.013 12.013 0 0 1 12 12Zm-4.5-94.614V101.07a86.073 86.073 0 1 1 172.146 0v24.927ZM361.57 220.61a12 12 0 1 1-12-12 12.013 12.013 0 0 1 12 12Zm-87.65 216.386h-20.846v-28.145q5.206.186 10.42.191l1.06-.002q4.686-.017 9.366-.186ZM263.497 217.2a12.5 12.5 0 1 1-12.5 12.5 12.514 12.514 0 0 1 12.5-12.5Zm-10.27 38.003a27.406 27.406 0 0 0 20.54 0l28.826 36.858a179.438 179.438 0 0 1-78.19 0Zm-20.403 53.716a194.462 194.462 0 0 0 30.67 2.452h.707a194.442 194.442 0 0 0 29.969-2.454l23.759 30.38a234.318 234.318 0 0 1-108.863 0Zm-35.726 77.053 22.774-29.12a249.366 249.366 0 0 0 43.629 3.855l.898-.002a249.38 249.38 0 0 0 42.725-3.854l22.774 29.12a277.391 277.391 0 0 1-65.397 8.069l-1.006.002a277.322 277.322 0 0 1-66.397-8.07Z"></path>
</svg>
